<svg width="1088" height="214" viewBox="0 0 1088 214" fill="none" xmlns="http://www.w3.org/2000/svg">
<g clip-path="url(#clip0_2_2934)">
<path d="M317.992 45.0473L292.579 137.314L270.055 44.8779H249.056L282.567 169.73H302.571L328.601 78.7681L354.8 169.73H374.814L408.236 44.8779H387.236L364.812 137.314L339.3 44.8779L317.992 45.0473Z" fill="black"/>
<path d="M435.681 44.8779H415.299V64.8813H435.681V44.8779Z" fill="black"/>
<path d="M435.492 76.3574H415.488V169.73H435.492V76.3574Z" fill="black"/>
<path d="M531.872 97.2371C530.607 93.2324 528.635 89.4071 526.005 85.8507C523.385 82.3242 519.799 79.3755 515.346 77.0843C510.893 74.803 505.155 73.6475 498.281 73.6475C489.564 73.6475 482.133 75.5801 476.186 79.3755C473.028 81.3978 470.209 83.8484 467.828 86.6775L466.881 87.8032V76.3571H449.159V169.729H469.422V121.733C469.422 115.925 470.079 111.084 471.374 107.348C472.679 103.593 474.442 100.574 476.614 98.4026C478.796 96.221 481.256 94.6669 483.956 93.7704C486.626 92.8837 489.355 92.4355 492.085 92.4355C497.185 92.4355 501.309 93.5612 504.338 95.7727C507.346 97.9742 509.637 100.833 511.162 104.25C512.666 107.637 513.632 111.204 514.051 114.86C514.459 118.486 514.668 121.833 514.668 124.801V169.739H534.93V117.539C534.93 115.308 534.741 112.339 534.363 108.723C533.984 105.137 533.157 101.272 531.892 97.2371H531.872Z" fill="black"/>
<path d="M586.841 73.7373C578.075 73.7373 570.345 75.8991 563.879 80.1627C557.404 84.4264 552.334 90.3338 548.807 97.6955C545.271 105.077 543.478 113.605 543.478 123.038C543.478 132.472 545.251 140.84 548.757 148.262C552.254 155.653 557.255 161.591 563.61 165.884C569.966 170.178 577.507 172.349 586.044 172.349C595.1 172.349 602.79 170.178 608.907 165.884C610.132 165.028 611.348 164.051 612.613 162.896L613.509 162.079V169.71H631.062V44.8779H610.889V81.5076L609.674 80.5712C609.495 80.4317 609.315 80.2823 609.126 80.1528C603.149 75.8991 595.648 73.7373 586.831 73.7373H586.841ZM611.088 106.641C612.702 111.313 613.519 116.832 613.519 123.038C613.519 129.245 612.702 134.694 611.088 139.396C609.455 144.148 606.835 147.893 603.288 150.543C599.742 153.193 595.03 154.538 589.282 154.538C583.534 154.538 579.031 153.113 575.395 150.314C571.769 147.525 569.05 143.689 567.306 138.918C565.573 134.196 564.696 128.846 564.696 123.038C564.696 117.231 565.593 111.971 567.356 107.239C569.129 102.467 571.929 98.622 575.664 95.8028C579.42 92.9736 584.231 91.5391 589.979 91.5391C595.727 91.5391 599.961 92.884 603.428 95.5438C606.875 98.1936 609.455 101.929 611.088 106.641Z" fill="black"/>
<path d="M719.693 104.45L718.776 104.012L719.653 103.494C722.642 101.73 725.192 99.3195 727.234 96.321C730.452 91.5991 732.085 85.7515 732.085 78.9575C732.085 73.4188 730.77 67.9597 728.16 62.7596C725.56 57.5695 721.536 53.2461 716.196 49.8989C710.857 46.5617 703.903 44.8682 695.535 44.8682H644.152V169.72H698.624C706.772 169.72 713.696 168.156 719.215 165.068C724.724 161.989 728.928 157.646 731.727 152.177C734.526 146.678 735.951 140.173 735.951 132.831C735.951 125.489 733.908 119.233 729.884 113.645C727.393 110.188 724.435 106.671 719.693 104.45ZM664.415 63.4769H695.914C701.513 63.4769 705.946 65.001 709.094 67.9995C712.251 71.008 713.845 74.8134 713.845 79.3162C713.845 82.7331 713.038 85.6618 711.464 88.0128C709.88 90.3638 707.719 92.1669 705.029 93.3623C702.359 94.5578 699.301 95.1555 695.924 95.1555H664.425V63.4769H664.415ZM713.198 142.175C711.494 144.955 709.113 147.146 706.115 148.67C703.136 150.185 699.729 150.962 695.984 150.962H664.405V113.764H696.601C700.586 113.764 704.053 114.601 706.922 116.245C709.791 117.888 712.012 120.13 713.507 122.879C715.001 125.629 715.758 128.777 715.758 132.233C715.758 136.049 714.891 139.396 713.188 142.175H713.198Z" fill="black"/>
<path d="M812.747 80.0431C805.803 75.8592 797.545 73.7373 788.191 73.7373C778.837 73.7373 770.917 75.8293 763.983 79.9535C757.05 84.0777 751.551 89.8954 747.656 97.2373C743.751 104.589 741.769 113.266 741.769 123.048C741.769 132.831 743.701 141.269 747.527 148.64C751.342 156.012 756.791 161.87 763.724 166.054C770.658 170.238 778.896 172.359 788.191 172.359C797.485 172.359 805.724 170.247 812.667 166.093C819.6 161.939 825.079 156.092 828.954 148.73C832.83 141.348 834.792 132.711 834.792 123.048C834.792 113.385 832.84 104.838 828.994 97.4564C825.149 90.0847 819.69 84.2371 812.757 80.0431H812.747ZM807.337 145.044C803.173 150.762 796.728 153.661 788.191 153.661C779.653 153.661 773.607 150.842 769.353 145.273C765.129 139.754 762.987 132.273 762.987 123.038C762.987 117.051 763.884 111.702 765.647 107.149C767.43 102.547 770.22 98.9009 773.925 96.3208C777.641 93.7307 782.443 92.4157 788.181 92.4157C796.598 92.4157 803.004 95.2349 807.238 100.804C811.432 106.322 813.553 113.804 813.553 123.038C813.553 132.273 811.462 139.376 807.327 145.044H807.337Z" fill="black"/>
<path d="M887.619 75.9688C884.7 76.1681 881.811 76.716 879.042 77.6026C876.272 78.4892 873.712 79.7145 871.441 81.2486C868.751 82.9122 866.43 85.0241 864.527 87.5544C863.691 88.6702 862.914 89.8656 862.157 91.2005L861.15 92.9936V76.3474H843.598V169.72H863.681V122.251C863.681 118.605 864.129 115.159 865.016 112.011C865.902 108.843 867.297 105.974 869.17 103.483C871.042 100.983 873.503 98.901 876.472 97.2971C879.42 95.5239 882.807 94.468 886.523 94.1691C889.92 93.9001 892.998 94.1093 895.688 94.7867V76.2777C893.078 75.8792 890.358 75.7696 887.609 75.9589L887.619 75.9688Z" fill="black"/>
<path d="M986.44 97.2376C985.185 93.2329 983.212 89.4076 980.572 85.8512C977.952 82.3247 974.366 79.376 969.913 77.0848C965.46 74.8035 959.722 73.6479 952.839 73.6479C944.122 73.6479 936.69 75.5805 930.743 79.376C927.585 81.3983 924.766 83.8588 922.385 86.678L921.439 87.8037V76.3576H903.717V169.73H923.979V121.734C923.979 115.926 924.637 111.085 925.932 107.349C927.237 103.593 929 100.575 931.172 98.4031C933.353 96.2214 935.814 94.6674 938.513 93.7708C941.183 92.8842 943.913 92.436 946.642 92.436C951.743 92.436 955.867 93.5616 958.895 95.7732C961.904 97.9747 964.195 100.834 965.719 104.251C967.223 107.638 968.19 111.204 968.608 114.86C969.017 118.486 969.226 121.823 969.226 124.802V169.74H989.488V117.54C989.488 115.298 989.299 112.33 988.92 108.724C988.542 105.137 987.715 101.272 986.45 97.2376H986.44Z" fill="black"/>
<path d="M107.299 0C48.1356 0 0 47.9961 0 107C0 166.004 48.1356 214 107.299 214C166.462 214 214.598 165.994 214.598 107C214.598 48.0061 166.472 0 107.299 0ZM115.986 12.2331C135.75 14.0163 153.801 21.8363 168.255 33.8204C169.341 34.7269 168.933 36.4902 167.568 36.8289L133.867 45.2865C133.12 45.4757 132.353 45.147 131.954 44.4895L114.352 14.8431C113.635 13.6278 114.591 12.1036 115.996 12.2232L115.986 12.2331ZM52.19 91.7584C52.5686 91.5392 52.9172 91.3002 53.2559 91.0411L64.7718 95.7929C63.8254 99.3792 63.3074 103.135 63.3074 107.01C63.3074 110.536 63.7358 113.973 64.5327 117.271L53.1065 122.022C52.7578 121.773 52.3893 121.524 52.0007 121.305L28.9291 108.355C27.7636 107.697 27.7437 106.024 28.8993 105.346L52.1801 91.7584H52.19ZM53.0069 50.5264L80.2425 57.6093L85.0541 69.1749C78.5789 72.9804 73.1597 78.3896 69.3542 84.8648L57.7288 80.0732C57.679 79.7444 57.6093 79.4057 57.5296 79.077L50.895 52.6283C50.5762 51.3532 51.7318 50.1977 53.0069 50.5264ZM50.885 160.435L57.4997 134.056C57.5993 133.668 57.6591 133.289 57.7188 132.901L68.8462 128.268C72.5918 134.973 78.041 140.601 84.6158 144.566L80.0931 155.534C79.7345 155.594 79.3758 155.654 79.0172 155.753L52.9969 162.517C51.7318 162.846 50.5662 161.7 50.885 160.415V160.435ZM75.152 107C75.152 89.3377 89.5668 74.9727 107.299 74.9727C125.031 74.9727 139.446 89.3377 139.446 107C139.446 124.662 125.031 139.037 107.299 139.037C89.5668 139.037 75.152 124.662 75.152 107ZM128.567 68.6071L133.07 57.6889C133.07 57.6889 133.16 57.669 133.21 57.6591L161.541 50.5463C162.806 50.2275 163.962 51.3831 163.643 52.6582L156.919 79.0371C156.869 79.2364 156.839 79.4356 156.799 79.6349L145.054 84.5161C141.059 77.8816 135.361 72.3727 128.567 68.6171V68.6071ZM145.423 128.846L156.819 133.548C156.859 133.738 156.889 133.927 156.939 134.116L163.643 160.425C163.972 161.69 162.816 162.856 161.541 162.537L133.21 155.434C133.13 155.414 133.05 155.405 132.961 155.385L128.767 145.293C135.69 141.408 141.458 135.72 145.423 128.866V128.846ZM162.448 121.285C161.87 121.614 161.322 121.983 160.824 122.391L149.916 117.888C150.812 114.402 151.29 110.756 151.29 107.01C151.29 102.995 150.732 99.1102 149.716 95.4144L160.844 90.7921C161.292 91.1507 161.77 91.4894 162.278 91.7783L185.649 105.346C186.804 106.024 186.794 107.707 185.619 108.355L162.457 121.285H162.448ZM108.763 28.6403L122.61 51.9709L117.51 64.3335C114.232 63.5565 110.805 63.1281 107.289 63.1281C103.374 63.1281 99.5784 63.6461 95.9623 64.6025L91.1507 53.0467L105.775 28.6203C106.442 27.4946 108.076 27.5046 108.753 28.6203L108.763 28.6403ZM46.4321 33.7507C60.8668 21.8064 78.8778 14.0163 98.6022 12.2331C100.007 12.1036 100.963 13.6377 100.246 14.8531L82.4042 44.6589C82.0058 45.3164 81.2287 45.6351 80.4816 45.4459L47.1095 36.7691C45.7447 36.4204 45.3462 34.6572 46.4321 33.7606V33.7507ZM12.253 98.1738C14.086 78.3797 22.0256 60.3288 34.179 45.9041C35.0856 44.8183 36.8388 45.2367 37.1775 46.6114L45.6551 80.4119C45.8443 81.159 45.5156 81.946 44.8482 82.3245L14.8531 99.8275C13.6377 100.535 12.1136 99.5784 12.2431 98.1738H12.253ZM36.1913 170.417C22.8724 155.594 14.1358 136.587 12.2331 115.657C12.1136 114.272 13.5979 113.306 14.8132 113.993L44.7983 130.819C45.4857 131.207 45.8244 131.994 45.6351 132.751L36.271 170.068C36.2411 170.188 36.2212 170.297 36.1913 170.417ZM45.5554 179.522C44.4895 178.616 44.888 176.882 46.2428 176.524C55.2782 174.183 80.4716 167.638 80.4716 167.638C81.2188 167.438 81.9958 167.757 82.3943 168.425C82.3943 168.425 95.9822 191.108 100.854 199.217C101.581 200.432 100.634 201.956 99.2298 201.837C78.8578 200.133 60.289 192.014 45.5455 179.532L45.5554 179.522ZM105.795 184.433L91.7385 160.973C91.5392 160.634 91.3101 160.316 91.081 160.007L95.514 149.268C99.2696 150.314 103.215 150.882 107.309 150.882C110.915 150.882 114.412 150.444 117.759 149.617L122.57 161.192L108.773 184.433C108.106 185.559 106.472 185.569 105.795 184.433ZM115.368 201.827C113.963 201.946 113.007 200.422 113.734 199.207C118.556 191.128 131.954 168.574 131.954 168.574C132.343 167.917 133.12 167.588 133.867 167.777C133.867 167.777 159.329 174.163 168.445 176.434C169.809 176.773 170.228 178.516 169.152 179.432C154.398 191.964 135.79 200.113 115.368 201.827ZM202.375 115.657C200.571 135.431 192.682 153.482 180.588 167.917C179.681 168.992 177.928 168.594 177.59 167.229C175.278 158.114 168.823 132.761 168.823 132.761C168.624 132.004 168.973 131.207 169.66 130.819L199.804 113.983C201.02 113.306 202.504 114.262 202.375 115.647V115.657ZM199.765 99.8374L169.61 82.3245C168.943 81.936 168.604 81.149 168.803 80.3919L177.43 46.5616C177.779 45.1968 179.522 44.7884 180.429 45.8643C192.592 60.2989 200.542 78.3597 202.365 98.1639C202.494 99.5685 200.98 100.525 199.765 99.8175V99.8374Z" fill="black"/>
<path d="M1083.21 99.6283C1079.94 91.4397 1074.87 85.0043 1068.15 80.5016C1061.41 76.0088 1053.11 73.7275 1043.48 73.7275C1034.35 73.7275 1026.21 75.8295 1019.26 79.9537C1012.33 84.0779 1006.84 89.9653 1002.94 97.4467C999.032 104.938 997.06 113.904 997.06 124.095C997.06 133.518 999.082 141.966 1003.07 149.188C1007.05 156.421 1012.68 162.139 1019.78 166.213C1026.9 170.288 1035.28 172.35 1044.71 172.35C1054.13 172.35 1061.96 169.999 1069.38 165.346C1074.04 162.438 1077.97 158.752 1081.13 154.339C1084.07 150.224 1085.74 145.343 1086.08 140.302H1065.89C1063.82 144.556 1060.89 147.854 1057.18 150.125C1053.35 152.476 1048.74 153.661 1043.48 153.661C1035.3 153.661 1028.98 150.942 1024.69 145.592C1021.37 141.428 1019.31 135.84 1018.6 128.956L1018.53 128.358H1086.97C1087.7 117.39 1086.44 107.727 1083.21 99.6283ZM1018.99 113.525L1019.1 112.887C1020.07 107.359 1021.95 102.786 1024.69 99.3195C1028.98 93.8704 1035.59 91.1109 1044.35 91.1109C1052.13 91.1109 1057.93 93.5615 1061.57 98.403C1064.14 101.82 1065.83 106.701 1066.6 112.917L1066.67 113.525H1018.99Z" fill="black"/>
</g>
<defs>
<clipPath id="clip0_2_2934">
<rect width="1087.17" height="214" fill="white"/>
</clipPath>
</defs>
</svg>
